<?xml version="1.0" encoding="UTF-8"?>
<svg id="Calque_1" xmlns="http://www.w3.org/2000/svg" version="1.1" viewBox="0 0 338 62">
  <!-- Generator: Adobe Illustrator 29.1.0, SVG Export Plug-In . SVG Version: 2.1.0 Build 142)  -->
  <defs>
    <style>
      .st0 {
        fill: #deded5;
        font-family: PPValve-Medium, 'PP Valve';
        font-size: 60px;
        font-weight: 500;
      }

      .st1 {
        fill: #8792e8;
      }
    </style>
  </defs>
  <text class="st0" transform="translate(-2.04 60.39)"><tspan x="0" y="0">SamIdeas</tspan></text>
  <path class="st1" d="M321.47,16.49h-1.44c-.18,3.06-1.26,4.86-4.08,6.66l-5.1,3.18v-7.02l8.76-5.4-8.76-5.28V1.61l5.1,3.18c2.82,1.8,3.9,3.54,4.08,6.66h1.44V.05h6.12v11.4h1.38c.18-3.06,1.26-4.8,4.08-6.6l5.16-3.24v7.02l-8.82,5.28,8.82,5.4v7.02l-5.16-3.18c-2.82-1.74-3.9-3.54-4.14-6.66h-1.32v11.4h-6.12v-11.4Z"/>
</svg>